<?xml version="1.0" encoding="UTF-8" standalone="no"?>
<!-- Created with Inkscape (http://www.inkscape.org/) -->

<svg
   width="28.057184mm"
   height="21.849337mm"
   viewBox="0 0 28.057184 21.849337"
   version="1.1"
   id="svg1"
   xmlSpace="preserve"
   xmlns="http://www.w3.org/2000/svg"
   xmlnsSvg="http://www.w3.org/2000/svg"><defs
     id="defs1" /><g
     id="layer1"
     transform="translate(-57.206658,-68.949836)"><g
       id="g28"><g
         id="g27"
         transform="translate(0,0.46786117)"><path
           d="m 76.14455,80.62885 c -0.0529,0.131935 -18.351936,9.702459 -18.351936,9.702459 v -2.40681 l 16.09554,-8.611873 -16.09554,-8.423839 v -2.406813 c 0,0 18.230607,9.442154 18.351936,9.777671 0.374456,1.035615 0.367107,1.451745 0,2.369205 z"
           id="path12"
           style="font-size:13.4669px;font-family:PMingLiU-ExtB;-inkscape-font-specification:'PMingLiU-ExtB, Normal';fill:#05023a;fill-opacity:1;stroke-width:1.31368"
           aria-label="&gt;" /><path
           d="m 75.558594,80.913273 c -0.0529,0.131935 -2.256397,-1.316224 -2.256397,-1.316224 L 57.206657,71.17321 v -2.406813 c 0,0 18.230608,9.442154 18.351937,9.777671 0.374456,1.035615 0.367106,1.451745 0,2.369205 z"
           id="path13"
           style="font-size:13.4669px;font-family:PMingLiU-ExtB;-inkscape-font-specification:'PMingLiU-ExtB, Normal';fill:#837cfb;fill-opacity:1;stroke-width:1.31368"
           aria-label="&gt;" /><path
           d="m 76.115733,80.606798 c -0.05286,0.131935 -18.351932,9.702459 -18.351932,9.702459 v -2.40681 l 16.095537,-8.611873 c 0,0 2.135072,-1.388498 2.256395,-1.052981 0.37446,1.035615 0.367115,1.451745 0,2.369205 z"
           id="path14"
           style="font-size:13.4669px;font-family:PMingLiU-ExtB;-inkscape-font-specification:'PMingLiU-ExtB, Normal';fill:#05023a;fill-opacity:1;stroke-width:1.31368"
           aria-label="&gt;" /></g><g
         id="g26"
         transform="translate(-0.67819642,0.46772167)"><path
           id="ellipse10"
           style="fill:#05023a;fill-opacity:1;stroke-width:0.792833"
           d="m 82.272498,75.808809 a 3.6698368,3.5978794 0 0 0 -3.670061,3.597714 3.6698368,3.5978794 0 0 0 3.670061,3.59823 3.6698368,3.5978794 0 0 0 3.669543,-3.59823 3.6698368,3.5978794 0 0 0 -3.669543,-3.597714 z m 0.0036,1.445907 a 2.6522028,1.8632267 0 0 1 2.652551,1.863452 2.6522028,1.8632267 0 0 1 -2.652551,1.862936 2.6522028,1.8632267 0 0 1 -2.652035,-1.862936 2.6522028,1.8632267 0 0 1 2.652035,-1.863452 z" /><path
           id="ellipse11"
           style="fill:#837cfb;fill-opacity:1;stroke-width:0.57096"
           d="m 82.255444,76.223254 a 2.8811705,2.3767188 0 0 0 -2.880961,2.3766 2.8811705,2.3767188 0 0 0 0.760677,1.603519 2.6522028,1.8632267 0 0 1 -0.506429,-1.089856 2.6522028,1.8632267 0 0 1 2.652035,-1.863452 2.6522028,1.8632267 0 0 1 2.652551,1.863452 2.6522028,1.8632267 0 0 1 -0.166398,0.638721 2.8811705,2.3767188 0 0 0 0.370003,-1.152384 2.8811705,2.3767188 0 0 0 -2.881478,-2.3766 z m -0.857828,4.643128 a 2.8811705,2.3767188 0 0 0 0.101802,0.02377 2.6522028,1.8632267 0 0 1 -0.101802,-0.02377 z m 0.34003,0.06666 a 2.8811705,2.3767188 0 0 0 0.160197,0.02222 2.6522028,1.8632267 0 0 1 -0.160197,-0.02222 z m 0.426848,0.03824 a 2.8811705,2.3767188 0 0 0 0.09095,0.0052 2.8811705,2.3767188 0 0 0 0.01137,-5.17e-4 2.6522028,1.8632267 0 0 1 -0.102319,-0.0047 z" /></g></g></g></svg>
