<?xml version="1.0" encoding="UTF-8" standalone="no"?>
<!-- Created with Inkscape (http://www.inkscape.org/) -->

<svg
   width="21.64422mm"
   height="31.116196mm"
   viewBox="0 0 21.64422 31.116196"
   version="1.1"
   id="svg1"
   xml:space="preserve"
   inkscape:version="1.4 (86a8ad7, 2024-10-11)"
   sodipodi:docname="artes_challenge_book_store_inkscape.svg"
   xmlns:inkscape="http://www.inkscape.org/namespaces/inkscape"
   xmlns:sodipodi="http://sodipodi.sourceforge.net/DTD/sodipodi-0.dtd"
   xmlns="http://www.w3.org/2000/svg"
   xmlns:svg="http://www.w3.org/2000/svg"><sodipodi:namedview
     id="namedview1"
     pagecolor="#ffffff"
     bordercolor="#000000"
     borderopacity="0.25"
     inkscape:showpageshadow="2"
     inkscape:pageopacity="0.0"
     inkscape:pagecheckerboard="0"
     inkscape:deskcolor="#d1d1d1"
     inkscape:document-units="mm"
     inkscape:zoom="5.5090348"
     inkscape:cx="308.85628"
     inkscape:cy="448.17288"
     inkscape:window-width="2100"
     inkscape:window-height="1224"
     inkscape:window-x="2391"
     inkscape:window-y="35"
     inkscape:window-maximized="1"
     inkscape:current-layer="layer1"><inkscape:page
       x="0"
       y="-1.0264924e-13"
       width="21.64422"
       height="31.116198"
       id="page2"
       margin="0"
       bleed="0" /></sodipodi:namedview><defs
     id="defs1" /><g
     inkscape:label="Camada 1"
     inkscape:groupmode="layer"
     id="layer1"
     transform="translate(-66.867873,-101.75489)"><rect
       style="fill:#05023a;fill-opacity:1;stroke-width:0.0655974"
       id="rect3-3"
       width="21.644222"
       height="31.116194"
       x="66.867874"
       y="101.75488"
       ry="1.4888421"
       inkscape:export-filename="challenge_book_store\src\img\logo_challenge_book_store.webp"
       inkscape:export-xdpi="96"
       inkscape:export-ydpi="96" /><path
       style="fill:#c9a556;fill-opacity:1;stroke-width:0.244977"
       d="m 69.489571,131.62965 c -0.259298,-0.52999 -0.927131,-1.2102 -1.432414,-1.45894 l -0.413804,-0.20372 v -12.65392 -12.65392 l 0.413804,-0.20373 c 0.505283,-0.24874 1.173116,-0.92894 1.432414,-1.45893 l 0.178321,-0.36447 8.045898,0.003 8.045899,0.003 0.189286,0.39893 c 0.242019,0.51006 0.913795,1.19157 1.417439,1.43798 l 0.370202,0.18113 v 12.6565 12.65651 l -0.370202,0.18112 c -0.477179,0.23346 -1.154546,0.91369 -1.432277,1.43831 l -0.214452,0.40511 h -8.025901 -8.025892 z m 16.306623,0.089 c 0.228259,-0.56817 0.942667,-1.32789 1.494021,-1.58878 l 0.375065,-0.17749 0.003,-12.64249 0.003,-12.64249 -0.212287,-0.0768 c -0.527852,-0.19086 -1.348936,-0.99458 -1.613002,-1.57885 l -0.142391,-0.3149 h -7.992474 -7.992408 l -0.204034,0.40511 c -0.262169,0.52053 -0.935532,1.18985 -1.434927,1.4263 l -0.372228,0.17624 8.19e-4,12.62394 8.18e-4,12.62395 0.371595,0.16055 c 0.483833,0.20905 1.166708,0.88396 1.437838,1.42106 l 0.199542,0.39531 h 7.996099 7.996098 z m -16.122925,-0.35778 c -0.272443,-0.57619 -0.815661,-1.12057 -1.392301,-1.39528 l -0.435868,-0.20766 -0.0022,-12.44485 -0.0022,-12.44486 0.371581,-0.15846 c 0.512198,-0.2184 1.291079,-0.99727 1.50949,-1.50948 l 0.158441,-0.37158 7.828256,-8.6e-4 7.828257,-8.6e-4 0.06736,0.17727 c 0.174004,0.45768 0.314987,0.66593 0.73797,1.09006 0.323861,0.32474 0.563728,0.50182 0.828309,0.61149 l 0.372433,0.15436 v 12.45342 12.45341 l -0.368137,0.15259 c -0.51818,0.21477 -1.185925,0.8816 -1.451826,1.44984 l -0.201586,0.43075 -7.820534,-8.6e-4 -7.820548,-8.6e-4 z m 15.871963,-0.22557 c 0.274673,-0.51883 0.896792,-1.14322 1.369477,-1.37449 l 0.368186,-0.18012 v -12.26736 -12.26735 l -0.202573,-0.0839 c -0.576848,-0.23893 -1.397665,-1.0682 -1.646286,-1.66321 l -0.0891,-0.21311 h -7.640625 -7.640632 l -0.156925,0.34029 c -0.2087,0.45261 -1.016839,1.26075 -1.469451,1.46946 l -0.340288,0.15691 v 12.26066 12.26067 l 0.340288,0.15692 c 0.452612,0.20871 1.260751,1.01684 1.469451,1.46945 l 0.156925,0.34029 h 7.633517 7.633529 z m -15.463223,0.22364 c -0.04114,-0.0665 0.117523,-0.4667 0.185033,-0.4667 0.0152,0 0.102072,0.0339 0.193061,0.0754 0.206821,0.0943 0.250732,0.0533 0.170196,-0.15844 -0.04493,-0.11811 -0.09806,-0.15674 -0.184588,-0.13412 -0.134045,0.035 -0.246045,-0.0697 -0.287585,-0.2689 -0.01486,-0.0713 -0.06394,-0.12163 -0.109015,-0.11183 -0.04515,0.009 -0.0623,-0.0141 -0.03817,-0.053 0.02407,-0.0389 0.09183,-0.0515 0.150664,-0.0277 0.05874,0.0237 0.14855,0.05 0.199492,0.0585 0.05094,0.008 0.11251,0.0713 0.136807,0.13958 0.04463,0.12512 0.111362,-0.18559 0.117304,-0.54543 0.0052,-0.31961 0.160586,-0.35887 0.755159,-0.19088 0.42066,0.11887 0.669399,0.51266 0.420852,0.66627 -0.09964,0.0616 -0.154221,-0.15128 -0.06602,-0.25754 0.10449,-0.12583 0.04396,-0.20488 -0.224777,-0.29355 l -0.224652,-0.0741 -0.145354,0.10185 c -0.07993,0.056 -0.120735,0.10186 -0.09057,0.10186 0.03015,0 0.0185,0.0437 -0.02593,0.0972 -0.04441,0.0535 -0.132293,0.0972 -0.195355,0.0972 -0.113128,0 -0.240922,0.2983 -0.16173,0.37751 0.02102,0.0209 0.0548,-0.0259 0.0754,-0.10418 0.02044,-0.0782 0.06104,-0.12753 0.09015,-0.10953 0.02918,0.018 0.07129,0.003 0.09373,-0.0331 0.02235,-0.0362 0.10291,-0.0659 0.178915,-0.0659 h 0.1382 l -0.125716,0.0919 c -0.06913,0.0506 -0.104917,0.11274 -0.0795,0.13816 0.08741,0.0874 -0.08403,0.30223 -0.214024,0.26822 -0.310242,-0.0812 0.0022,0.33775 0.35006,0.46963 0.313064,0.11863 0.545972,0.0825 0.772517,-0.11996 0.201071,-0.17965 0.222257,-0.36993 0.02279,-0.20436 -0.141155,0.11716 -0.453445,0.0613 -0.481426,-0.0859 -0.01701,-0.0895 0.0045,-0.11229 0.07845,-0.0838 0.05599,0.0215 0.118583,0.0117 0.139206,-0.0216 0.02235,-0.0361 0.08731,-0.0296 0.160489,0.0161 0.193951,0.12113 0.389551,-0.0948 0.389426,-0.4298 -2.15e-4,-1.10944 -1.323753,-1.38989 -2.250686,-0.47695 -0.186271,0.18345 -0.359572,0.31267 -0.385102,0.28714 -0.02555,-0.0255 0.103859,-0.19883 0.287533,-0.3851 0.683406,-0.69309 0.723839,-1.67781 0.08636,-2.10367 -0.44434,-0.29683 -1.213145,-0.10927 -0.993515,0.2424 0.04575,0.0732 0.05228,0.13819 0.01611,0.16049 -0.03334,0.0207 -0.04314,0.0833 -0.02161,0.13922 0.02844,0.0741 0.0052,0.0954 -0.08383,0.0784 -0.163829,-0.0311 -0.196387,-0.33875 -0.05822,-0.5497 l 0.106534,-0.16259 -0.12922,0.0691 c -0.462899,0.24775 -0.521816,0.86023 -0.123635,1.2853 0.168145,0.17949 0.243646,0.18522 0.243646,0.0185 0,-0.12876 0.208968,-0.29026 0.281594,-0.21761 0.02161,0.0216 0.0893,-8.7e-4 0.150292,-0.051 l 0.110921,-0.0902 -0.04931,0.12963 c -0.02711,0.0713 -0.05451,0.1588 -0.06075,0.19446 -0.0067,0.0356 -0.05517,0.0847 -0.10862,0.10887 -0.06401,0.029 -0.03631,0.0457 0.08097,0.0486 0.134795,0.003 0.178247,-0.0262 0.178247,-0.12126 0,-0.12165 0.101224,-0.22764 0.219421,-0.22968 0.110669,-0.002 0.153006,-0.26353 0.07897,-0.48767 -0.07255,-0.21931 -0.102063,-0.23317 -0.379365,-0.17769 -0.04463,0.008 -0.0892,-0.013 -0.09922,-0.0486 -0.01053,-0.0357 0.05822,-0.0743 0.151573,-0.0858 0.204609,-0.0254 0.417584,0.14916 0.417584,0.34223 0,0.0764 0.02681,0.16674 0.05948,0.2006 0.03267,0.0339 0.06899,0.17749 0.08066,0.31913 l 0.02108,0.25754 -0.15913,0.0793 c -0.08751,0.0437 -0.189435,0.0575 -0.226476,0.0308 -0.03698,-0.0267 -0.198592,-0.0145 -0.359023,0.0272 l -0.291679,0.0758 0.162042,0.0249 c 0.0891,0.0137 0.152708,0.0394 0.141288,0.0573 -0.01135,0.0178 0.0095,0.11236 0.04686,0.21006 l 0.06757,0.17765 -0.144012,-0.0743 c -0.07918,-0.0409 -0.187764,-0.095 -0.241232,-0.12025 -0.05347,-0.0253 -0.09806,-0.10907 -0.09901,-0.18621 -8.61e-4,-0.0842 -0.06899,-0.17512 -0.170264,-0.22764 -0.589888,-0.30604 -0.634449,-1.19119 -0.07729,-1.53554 0.993522,-0.61402 2.075536,0.26408 1.753055,1.42268 -0.122363,0.43959 -0.151407,0.41054 0.288182,0.28817 1.246055,-0.3468 2.16816,0.99422 1.288493,1.87388 l -0.245621,0.24564 h -0.428938 c -0.235917,0 -0.428931,-0.0282 -0.428931,-0.0625 0,-0.10238 -0.244359,-0.20848 -0.29427,-0.12772 -0.02383,0.0386 0.01992,0.0858 0.09879,0.10639 0.106831,0.0279 0.120383,0.0505 0.05518,0.0918 -0.113761,0.0721 -0.20062,0.0718 -0.155874,-8.6e-4 0.03394,-0.0549 -0.162821,-0.13426 -0.337827,-0.13613 -0.04575,-2.1e-4 -0.106543,0.0625 -0.13517,0.13984 -0.03342,0.0904 -0.06847,0.11424 -0.09774,0.0668 z m 14.605561,-0.0312 -0.09986,-0.079 0.116066,-0.11343 c 0.06394,-0.0625 0.116082,-0.0982 0.116082,-0.0795 0,0.0186 0.06906,-0.0113 0.153407,-0.0666 l 0.153406,-0.10049 0.105857,0.16157 c 0.118758,0.18125 0.139169,0.36057 0.04099,0.36057 -0.03564,0 -0.06134,-0.0218 -0.05718,-0.0486 0.02317,-0.14709 -0.02331,-0.21054 -0.153509,-0.20966 -0.192823,8.7e-4 -0.335556,0.0963 -0.279962,0.18621 0.05651,0.0915 0.03045,0.0885 -0.09541,-0.011 z m -1.323977,-0.25832 c -0.912636,-0.91263 0.113367,-2.34168 1.359035,-1.8929 0.357715,0.12887 0.36267,0.12598 0.249411,-0.1451 -0.149478,-0.35775 -0.09722,-1.02826 0.101955,-1.30796 0.424187,-0.5957 1.51089,-0.59269 1.887609,0.005 l 0.135094,0.21443 -0.03037,0.42093 c -0.01663,0.23151 -8.62e-4,0.47567 0.03468,0.54256 0.04151,0.0776 0.04196,0.10735 8.62e-4,0.0822 -0.07877,-0.0487 -0.237068,0.31392 -0.178446,0.40875 0.02339,0.0379 0.08624,0.0688 0.139703,0.0688 0.05347,0 0.07918,0.0292 0.05718,0.0648 -0.05777,0.0935 -0.12827,0.0805 -0.29464,-0.0542 l -0.146969,-0.119 0.09078,-0.20509 c 0.04998,-0.1128 0.11284,-0.20509 0.139772,-0.20509 0.02694,0 0.04901,-0.0648 0.04901,-0.14405 v -0.14406 l -0.09469,0.13512 c -0.05206,0.0743 -0.178928,0.17004 -0.281956,0.21271 -0.149966,0.0621 -0.181314,0.10897 -0.157222,0.23499 0.02161,0.11336 -0.0045,0.16802 -0.09078,0.19535 -0.06639,0.0209 -0.171875,0.0653 -0.234252,0.0986 -0.13023,0.0696 -0.142884,0.0157 -0.05228,-0.22246 0.03364,-0.0885 0.113835,-0.17445 0.178245,-0.19115 0.08446,-0.0218 0.07188,-0.0327 -0.04493,-0.0389 -0.0891,-0.004 -0.204228,-0.0352 -0.255779,-0.0678 -0.05376,-0.0341 -0.138444,-0.0353 -0.198564,-0.003 -0.188464,0.1009 -0.423985,-0.0728 -0.399057,-0.29427 0.03891,-0.34559 0.219022,-0.81076 0.338736,-0.87484 0.150029,-0.0803 0.449836,-0.0815 0.449836,-0.002 0,0.11174 -0.134003,0.14572 -0.237119,0.0601 l -0.101861,-0.0845 -0.122201,0.15091 c -0.180132,0.22246 -0.161344,0.5138 0.03809,0.58959 0.08962,0.0341 0.178415,0.13337 0.201482,0.22526 0.03186,0.12693 0.08024,0.16262 0.212463,0.15681 0.09416,-0.004 0.126196,-0.0197 0.07114,-0.0346 -0.120474,-0.0326 -0.271005,-0.39498 -0.185903,-0.44757 0.03245,-0.02 0.05904,0.007 0.05904,0.0602 0,0.0573 0.07255,0.10512 0.178245,0.11725 0.127621,0.0146 0.184126,0.0619 0.198962,0.16636 0.02355,0.16587 0.03765,0.17118 0.209732,0.0791 0.35315,-0.18899 0.43635,-0.89989 0.138704,-1.18506 -0.227941,-0.21839 -0.307792,-0.22434 -0.169054,-0.0126 0.115719,0.17662 0.08024,0.48696 -0.05547,0.4861 -0.04389,-2.2e-4 -0.113501,-0.0731 -0.154705,-0.16205 -0.04122,-0.0889 -0.04849,-0.16153 -0.01628,-0.16153 0.09638,0 0.06646,-0.3018 -0.03862,-0.38899 -0.179692,-0.14913 -0.783255,-0.0494 -1.013986,0.16757 -0.560274,0.52683 -0.490187,1.32332 0.176516,2.00621 0.197584,0.20238 0.345406,0.3818 0.328481,0.39872 -0.05822,0.0582 -0.296148,-0.11149 -0.462927,-0.33016 -0.249982,-0.32774 -0.731928,-0.51231 -1.251403,-0.47922 l -0.417653,0.0266 -0.247016,0.26482 c -0.366933,0.39336 -0.427915,0.95996 -0.120997,1.12421 0.09942,0.0532 0.157732,0.0507 0.231035,-0.0105 0.05829,-0.0484 0.115731,-0.0567 0.141686,-0.0207 0.02407,0.0333 0.08013,0.0607 0.124697,0.0607 0.04463,0 0.08109,0.0219 0.08109,0.0486 v 0.11344 c 0,0.1008 -0.343747,0.0762 -0.504118,-0.0361 -0.171689,-0.12025 -0.184626,-0.05 -0.02585,0.14001 0.25876,0.30954 0.579688,0.36142 0.978203,0.1581 0.200584,-0.10228 0.395721,-0.3207 0.314817,-0.35232 -0.174838,-0.0683 -0.280978,-0.18296 -0.297509,-0.32135 -0.01131,-0.0945 -0.05257,-0.17171 -0.09183,-0.17171 -0.03921,0 -0.05354,-0.0178 -0.03186,-0.0395 0.06527,-0.0653 0.43582,0.12877 0.43582,0.22815 0,0.0507 0.01805,0.0741 0.04017,0.052 0.09046,-0.0905 -0.04522,-0.35753 -0.201665,-0.39678 -0.08941,-0.0224 -0.162608,-0.083 -0.162608,-0.13453 0,-0.0515 -0.05829,-0.12493 -0.129642,-0.16309 l -0.129629,-0.0694 v 0.13193 c 0,0.0725 -0.02822,0.13191 -0.06282,0.13191 -0.03446,0 -0.04597,-0.0437 -0.02539,-0.0972 0.05124,-0.13348 -0.193365,-0.12926 -0.305014,0.005 -0.06527,0.0787 -0.0678,0.13019 -0.01083,0.22134 0.05696,0.0913 0.05473,0.13503 -0.0095,0.18863 -0.189407,0.1572 -0.238851,-0.22482 -0.05599,-0.43235 0.101329,-0.11496 0.302053,-0.18488 0.872432,-0.30389 0.197835,-0.0414 0.324783,0.11379 0.30281,0.36988 -0.02533,0.29493 0.0095,0.56689 0.07248,0.56689 0.03564,0 0.06483,-0.0601 0.06483,-0.13346 0,-0.0762 0.02904,-0.11551 0.06772,-0.0916 0.0372,0.023 0.110835,0.007 0.163593,-0.0379 0.126139,-0.10471 0.199336,-0.0274 0.09416,0.0993 -0.04515,0.0543 -0.06283,0.0988 -0.03936,0.0988 0.02339,0 0.01053,0.061 -0.02985,0.13533 -0.05428,0.10143 -0.111703,0.12547 -0.229129,0.0959 -0.10813,-0.0271 -0.156719,-0.012 -0.156719,0.0487 0,0.0484 -0.08024,0.19374 -0.178243,0.32295 l -0.178247,0.23494 -0.444006,0.002 -0.443984,0.002 z m -12.025681,-1.14938 c 0,-0.0475 0.01953,-0.067 0.04322,-0.0432 0.02369,0.0237 0.02369,0.0626 0,0.0865 -0.02369,0.0237 -0.04322,0.004 -0.04322,-0.0432 z m -3.041631,-0.38597 c -0.05659,-0.035 -0.0404,-0.0603 0.05466,-0.0851 0.159405,-0.0417 0.179776,-0.25281 0.03809,-0.39451 -0.05621,-0.0562 -0.07887,-0.14432 -0.05391,-0.20949 l 0.04315,-0.11244 0.05339,0.14421 c 0.02933,0.0793 0.0794,0.12806 0.111338,0.10835 0.05822,-0.0359 0.135011,0.16486 0.136667,0.3574 8.61e-4,0.12485 -0.271106,0.26091 -0.383261,0.19158 z m 1.378005,-1.27766 c 0.02369,-0.0238 0.0626,-0.0238 0.08646,0 0.02369,0.0237 0.0045,0.0432 -0.04322,0.0432 -0.04753,0 -0.06698,-0.0195 -0.04322,-0.0432 z m 15.976033,-8.6e-4 c 0.04678,-0.0188 0.102701,-0.0165 0.12423,0.005 0.02154,0.0215 -0.0168,0.0369 -0.08509,0.0341 -0.0755,-0.003 -0.09089,-0.0185 -0.03914,-0.0391 z M 68.823545,107.22273 c -0.34417,-0.16686 -0.467204,-0.39419 -0.467204,-0.86321 v -0.36279 l 0.178247,-0.16615 c 0.09806,-0.0914 0.241557,-0.19046 0.318941,-0.2202 0.09563,-0.0368 0.130535,-0.093 0.108927,-0.17558 -0.03713,-0.142 0.06698,-0.23935 0.320922,-0.30007 l 0.181637,-0.0434 -0.06587,0.1232 c -0.03624,0.0678 -0.04641,0.14276 -0.02243,0.1667 0.02391,0.0239 -0.02383,0.0612 -0.10617,0.0827 l -0.149685,0.0391 0.246803,0.0849 c 0.149084,0.0512 0.274634,0.0618 0.317081,0.0264 0.04248,-0.0353 0.133128,-0.0269 0.229419,0.021 l 0.159131,0.0793 -0.02108,0.25755 c -0.01161,0.14165 -0.0479,0.28525 -0.08066,0.31912 -0.03267,0.0339 -0.05948,0.12414 -0.05948,0.2006 0,0.19308 -0.212984,0.36762 -0.417601,0.34225 -0.09342,-0.0116 -0.161581,-0.0502 -0.151569,-0.0858 0.01055,-0.0357 0.05473,-0.0576 0.09922,-0.0486 0.277289,0.0555 0.306911,0.0415 0.380154,-0.17824 0.08329,-0.25009 0.02005,-0.45372 -0.140998,-0.45372 -0.05547,0 -0.113128,-0.0828 -0.135449,-0.19445 l -0.03891,-0.19445 -0.202556,0.007 c -0.156615,0.005 -0.173146,0.016 -0.073,0.0486 0.07129,0.0232 0.134765,0.0713 0.14104,0.10697 0.0067,0.0356 0.03364,0.12315 0.06074,0.19445 l 0.04938,0.12963 -0.11092,-0.0903 c -0.06104,-0.0497 -0.128651,-0.0726 -0.150297,-0.0509 -0.08224,0.0822 -0.29386,-0.0966 -0.261355,-0.22089 0.08108,-0.31025 -0.337756,0.002 -0.469633,0.35007 -0.147695,0.3898 -0.01611,0.77206 0.329394,0.95698 l 0.129209,0.0691 -0.106532,-0.1626 c -0.138219,-0.21094 -0.105664,-0.51859 0.05822,-0.54969 0.08952,-0.017 0.112286,0.004 0.08383,0.0784 -0.02154,0.056 -0.01174,0.11859 0.02161,0.13922 0.03609,0.0224 0.02956,0.0873 -0.01611,0.16049 -0.219632,0.35167 0.549173,0.53924 0.993512,0.2424 0.63746,-0.42585 0.597027,-1.41057 -0.08635,-2.10367 -0.183681,-0.18627 -0.313064,-0.35957 -0.287534,-0.3851 0.02555,-0.0255 0.198822,0.10365 0.385102,0.28715 0.704659,0.69401 1.671352,0.73389 2.103651,0.0868 0.296847,-0.44435 0.109288,-1.21315 -0.242391,-0.99352 -0.07314,0.0457 -0.138182,0.0523 -0.160489,0.0161 -0.02065,-0.0333 -0.0833,-0.0431 -0.139214,-0.0216 -0.07411,0.0284 -0.09542,0.005 -0.07845,-0.0838 0.02792,-0.14733 0.340269,-0.20308 0.481424,-0.0859 0.16256,0.1349 0.186579,0.003 0.02985,-0.16348 -0.276046,-0.29385 -0.751641,-0.29034 -1.106365,0.008 -0.23083,0.19423 -0.242139,0.26442 -0.04701,0.29212 0.09953,0.0141 0.152432,0.0721 0.166622,0.18276 0.01152,0.0891 0.06802,0.19851 0.12581,0.24306 l 0.105018,0.081 h -0.138195 c -0.07603,0 -0.15652,-0.0296 -0.178915,-0.0659 -0.02235,-0.0362 -0.06579,-0.0504 -0.09637,-0.0314 -0.03059,0.0189 -0.07507,-0.0266 -0.09869,-0.10101 -0.06067,-0.19099 -0.111211,-0.11173 -0.0597,0.0935 0.02585,0.10302 0.08762,0.1697 0.157268,0.1697 0.11384,0 0.327796,0.19207 0.219489,0.19705 -0.03112,8.6e-4 0.02309,0.0459 0.120427,0.0986 l 0.17697,0.0961 0.235215,-0.0983 c 0.183728,-0.0768 0.224984,-0.12317 0.188515,-0.21205 -0.07099,-0.17307 -0.07099,-0.24027 1.34e-4,-0.27583 0.112066,-0.056 0.11338,0.32844 8.61e-4,0.45201 -0.10017,0.11067 -0.198376,0.14401 -0.762522,0.25882 -0.272411,0.0555 -0.378984,-0.0191 -0.383082,-0.26814 -0.0067,-0.35982 -0.07277,-0.67053 -0.117294,-0.54542 -0.02421,0.0683 -0.08582,0.13108 -0.136806,0.13958 -0.05094,0.008 -0.140717,0.0348 -0.199503,0.0585 -0.05874,0.0237 -0.126566,0.0112 -0.150647,-0.0278 -0.02407,-0.0389 -0.0075,-0.0628 0.03817,-0.053 0.04515,0.01 0.09416,-0.0405 0.109022,-0.11181 0.04151,-0.19925 0.153539,-0.30398 0.287576,-0.26892 0.08646,0.0226 0.13969,-0.016 0.184596,-0.13412 0.08056,-0.21181 0.03661,-0.25268 -0.170195,-0.15845 -0.217351,0.099 -0.206627,0.1027 -0.314914,-0.10673 -0.06097,-0.11782 -0.0733,-0.21504 -0.03498,-0.27547 l 0.05904,-0.0934 8.61e-4,0.10959 c 6.46e-4,0.0603 0.03089,0.12808 0.06735,0.15066 0.0949,0.0586 0.460537,-0.0322 0.416462,-0.10344 -0.04589,-0.0743 0.03943,-0.0757 0.154588,-0.002 0.06527,0.0414 0.05168,0.0639 -0.05518,0.0918 -0.07876,0.0206 -0.122623,0.0678 -0.09879,0.10639 0.0499,0.0808 0.294261,-0.0253 0.294261,-0.12772 0,-0.0344 0.193031,-0.0625 0.42894,-0.0625 h 0.428931 l 0.24563,0.24563 c 0.879665,0.87966 -0.04248,2.22068 -1.288495,1.87386 -0.439589,-0.12235 -0.410538,-0.1514 -0.288188,0.28819 0.313531,1.12646 -0.629699,1.96542 -1.652284,1.46964 z m 16.670471,0.0178 c -0.532138,-0.24167 -0.780877,-1.02575 -0.521977,-1.64538 0.113259,-0.27107 0.108304,-0.27395 -0.249411,-0.14509 -1.250192,0.4504 -2.274981,-0.97696 -1.359035,-1.89291 l 0.211759,-0.21176 h 0.40505 0.405036 l 0.217209,0.22363 c 0.119462,0.12301 0.217203,0.2694 0.217203,0.32533 0,0.0752 0.04092,0.0914 0.156718,0.0623 0.117426,-0.0296 0.174872,-0.005 0.229142,0.0959 0.03988,0.0744 0.05324,0.13532 0.02985,0.13532 -0.02339,0 -0.0052,0.0445 0.03936,0.0988 0.105233,0.12677 0.03193,0.20401 -0.09416,0.0993 -0.0528,-0.0437 -0.126402,-0.0608 -0.163609,-0.0379 -0.03861,0.0238 -0.06772,-0.0154 -0.06772,-0.0916 0,-0.0734 -0.02918,-0.13347 -0.06483,-0.13347 -0.06683,0 -0.09796,0.22016 -0.07603,0.53778 0.02005,0.29064 -0.09352,0.44196 -0.299279,0.39888 -0.502904,-0.10533 -0.864638,-0.2479 -0.9277,-0.36573 -0.08151,-0.15224 -0.02057,-0.46575 0.07866,-0.40446 0.0375,0.0232 0.04998,0.11466 0.0277,0.2033 -0.02226,0.0887 -0.0067,0.20208 0.03513,0.25219 0.105226,0.12685 0.303491,0.11375 0.339068,-0.0224 0.02191,-0.084 0.03164,-0.0751 0.0372,0.0347 l 0.0074,0.14811 0.129644,-0.0694 c 0.07129,-0.0382 0.129633,-0.11156 0.129633,-0.1631 0,-0.0515 0.07315,-0.11207 0.162606,-0.13452 0.156444,-0.0394 0.292168,-0.30629 0.201667,-0.39679 -0.02205,-0.022 -0.04017,8.6e-4 -0.04017,0.052 0,0.0993 -0.3706,0.29339 -0.435831,0.22816 -0.02175,-0.0217 -0.0074,-0.0395 0.03186,-0.0395 0.03921,0 0.08055,-0.0802 0.09184,-0.17825 0.01264,-0.11016 0.07623,-0.20269 0.166342,-0.24223 0.187432,-0.0822 0.183599,-0.13406 -0.02413,-0.32655 -0.319628,-0.29622 -0.818052,-0.29 -1.099528,0.0137 -0.196192,0.21169 -0.203426,0.31979 -0.01247,0.18604 0.181936,-0.12744 0.478821,-0.13068 0.526754,-0.005 0.04151,0.10831 -0.05503,0.19182 -0.152275,0.13171 -0.03565,-0.0221 -0.06483,-0.01 -0.06483,0.0272 0,0.0439 -0.05896,0.0404 -0.169664,-0.0105 l -0.169654,-0.0773 -0.128711,0.15895 c -0.260037,0.32112 -0.003,1.04766 0.44541,1.26206 0.475967,0.22727 1.404421,0.0159 1.662836,-0.37846 0.123271,-0.18812 0.417606,-0.40456 0.473785,-0.34838 0.01966,0.0197 -0.124914,0.19527 -0.321359,0.39015 -0.884278,0.87725 -0.669763,2.14863 0.377194,2.23545 0.230867,0.0191 0.392358,8.6e-4 0.455147,-0.0512 0.11796,-0.0978 0.128586,-0.36557 0.01626,-0.41088 -0.06483,-0.0262 -0.06483,-0.0337 0,-0.0379 0.04463,-0.003 0.08098,-0.0635 0.08098,-0.13476 0,-0.18615 0.184329,-0.16012 0.232769,0.0329 0.02555,0.10186 8.61e-4,0.22284 -0.06505,0.32409 -0.138725,0.21172 -0.05881,0.20578 0.169052,-0.0126 0.287421,-0.27537 0.206086,-1.00054 -0.132538,-1.18177 -0.178812,-0.0957 -0.192207,-0.091 -0.215896,0.0758 -0.01477,0.10438 -0.07136,0.15166 -0.198964,0.16635 -0.09806,0.0113 -0.178245,0.0478 -0.178245,0.081 0,0.0333 -0.02659,0.0605 -0.05919,0.0605 -0.0326,0 -0.02615,-0.0875 0.01426,-0.19446 0.0404,-0.10694 0.112474,-0.19445 0.160237,-0.19445 0.04775,0 0.07055,-0.0264 0.0505,-0.0587 -0.07032,-0.11376 -0.271113,0.005 -0.346526,0.20456 -0.04196,0.11117 -0.09595,0.18241 -0.120078,0.15835 -0.194151,-0.19417 -0.283715,0.37779 -0.09553,0.61019 l 0.122216,0.15091 0.101857,-0.0845 c 0.103116,-0.0856 0.237125,-0.0517 0.237125,0.0601 0,0.24436 -0.560149,-0.008 -0.617976,-0.27876 -0.02486,-0.11616 -0.07444,-0.24749 -0.110133,-0.29184 -0.03572,-0.0444 -0.05117,-0.15273 -0.03438,-0.24081 0.01684,-0.088 -0.0022,-0.17105 -0.04099,-0.18437 -0.03935,-0.0133 0.02533,-0.0746 0.143717,-0.13597 0.148235,-0.077 0.23977,-0.0914 0.293854,-0.0466 0.04916,0.0408 0.114061,0.0427 0.173583,0.005 0.05228,-0.0331 0.167975,-0.0624 0.257093,-0.0653 l 0.162041,-0.005 -0.137514,-0.0555 c -0.130734,-0.0528 -0.265234,-0.36532 -0.189718,-0.44083 0.01953,-0.0195 0.03557,-0.003 0.03557,0.0357 0,0.0392 0.08024,0.0806 0.178245,0.0918 l 0.178245,0.0206 -0.0022,0.17611 c -0.0022,0.13329 0.04218,0.19455 0.180827,0.25199 0.100802,0.0417 0.225804,0.13671 0.27786,0.21102 l 0.09468,0.13513 v -0.14406 c 0,-0.0793 -0.02183,-0.14428 -0.04857,-0.14457 -0.05555,-2.1e-4 -0.210658,-0.31222 -0.210658,-0.42332 0,-0.11436 0.329747,-0.24461 0.411716,-0.16263 0.04738,0.0473 0.03572,0.0679 -0.03847,0.0679 -0.05852,0 -0.125475,0.0309 -0.148836,0.0688 -0.05859,0.0948 0.09964,0.45743 0.178452,0.40876 0.04069,-0.0251 0.04018,0.004 -8.62e-4,0.0822 -0.03587,0.0668 -0.05146,0.31105 -0.03475,0.54256 l 0.03037,0.42094 -0.135093,0.21442 c -0.26513,0.42081 -0.945636,0.5797 -1.467571,0.34266 z m -15.81973,-0.89196 c 0.02369,-0.0238 0.0626,-0.0238 0.08646,0 0.02369,0.0237 0.0045,0.0432 -0.04322,0.0432 -0.04753,0 -0.06698,-0.0195 -0.04322,-0.0432 z m 15.944968,0 c 0.02369,-0.0238 0.0626,-0.0238 0.08646,0 0.02369,0.0237 0.0045,0.0432 -0.04322,0.0432 -0.04753,0 -0.06698,-0.0195 -0.04322,-0.0432 z m -17.28422,-0.56697 c -0.02495,-0.0651 -0.0022,-0.15324 0.05391,-0.20948 0.141712,-0.1417 0.121333,-0.35283 -0.03809,-0.39452 -0.0949,-0.0249 -0.111159,-0.0502 -0.05458,-0.0851 0.11217,-0.0694 0.384338,0.0668 0.383267,0.19159 -0.0022,0.19254 -0.07845,0.39337 -0.136675,0.3574 -0.03193,-0.0198 -0.08203,0.029 -0.111328,0.10836 l -0.05332,0.1442 z m 3.002878,-1.07507 c 0,-0.0475 0.01953,-0.067 0.04322,-0.0432 0.02369,0.0237 0.02369,0.0626 0,0.0865 -0.02369,0.0237 -0.04322,0.004 -0.04322,-0.0432 z m 13.63549,-1.0665 c -0.07507,-0.0526 -0.147641,-0.0869 -0.161247,-0.0763 -0.01359,0.0106 -0.07352,-0.0319 -0.133139,-0.0945 l -0.108412,-0.11381 0.09226,-0.0354 c 0.05072,-0.0195 0.09226,-0.01 0.09226,0.0223 0,0.10175 0.399518,0.15564 0.457541,0.0618 0.02889,-0.0467 0.0381,-0.10814 0.02048,-0.13657 -0.01759,-0.0284 -8.61e-4,-0.0517 0.03669,-0.0517 0.10533,0 0.07887,0.20979 -0.04701,0.37337 l -0.112786,0.14653 z M 68.291527,131.8323 c -0.04441,-0.0535 -0.117642,-0.0972 -0.162799,-0.0972 -0.172215,0 -0.389336,-0.23791 -0.307318,-0.33674 0.0577,-0.0695 0.05874,-0.15058 0.0045,-0.32796 l -0.07233,-0.23563 0.108508,-0.16559 c 0.0597,-0.0911 0.140573,-0.16561 0.179767,-0.16561 0.04864,0 0.04627,0.0301 -0.0074,0.0944 -0.08045,0.097 -0.05592,0.17692 0.116148,0.37708 0.07529,0.0876 0.11076,0.0956 0.149128,0.0335 0.08203,-0.13278 0.445343,0.25827 0.445343,0.47938 0,0.30903 -0.296356,0.53396 -0.45372,0.34436 z m 18.48413,-0.0528 c -0.192237,-0.20463 -0.17694,-0.39191 0.0525,-0.64297 0.157022,-0.17179 0.204958,-0.19415 0.25433,-0.11862 0.04976,0.076 0.07908,0.0779 0.1605,0.0105 0.144331,-0.11978 0.192258,-0.32196 0.102067,-0.43061 -0.117922,-0.14209 0.0303,-0.11292 0.161185,0.0317 0.09205,0.10175 0.105233,0.18864 0.06876,0.45372 -0.03342,0.24301 -0.02413,0.32789 0.03587,0.32789 0.12659,0 -0.113447,0.23519 -0.33273,0.32602 -0.104384,0.0432 -0.189766,0.10427 -0.189766,0.13555 0,0.10788 -0.172144,0.0567 -0.312793,-0.0931 z M 67.961814,104.03751 c -0.112608,-0.0836 -0.25365,-0.3207 -0.25365,-0.42636 0,-0.14502 0.402898,-0.5293 0.484205,-0.46182 0.112502,0.0934 0.320333,-0.14843 0.275377,-0.32036 -0.04069,-0.15551 0.03364,-0.17218 0.148815,-0.0334 0.05421,0.0653 0.06899,0.20564 0.04389,0.41708 -0.0259,0.21871 -0.01352,0.32691 0.03973,0.34481 0.107208,0.0361 -0.05094,0.22288 -0.236271,0.27896 -0.07697,0.0233 -0.198317,0.0953 -0.269615,0.15991 -0.103124,0.0935 -0.150659,0.10197 -0.232477,0.0411 z m 19.321081,0.0244 c 0,-0.0362 -0.123962,-0.12864 -0.275473,-0.20545 -0.318829,-0.16164 -0.403158,-0.26208 -0.278556,-0.33181 0.06973,-0.039 0.07367,-0.097 0.0188,-0.27579 -0.0505,-0.1647 -0.04923,-0.27071 0.0045,-0.38905 0.07845,-0.17227 0.228849,-0.23146 0.164947,-0.065 -0.06535,0.17041 0.153397,0.42776 0.326691,0.38427 0.282514,-0.071 0.522869,0.3861 0.361568,0.68749 -0.07876,0.14713 -0.322606,0.29474 -0.322606,0.19527 z"
       id="path3-1"
       sodipodi:nodetypes="sscccsscccsscccsscccscscccsscccsscccsscccccscccsscccssscccssccccsscccsscccsscccsscccscssssssscssssssscssssssssscsssssssssccsssssscsscssssccssssscssssssscsscccsccsscssssscssssscssccccssccssscssccsssscsccsssscssscssssssssscsssscsssssssssssscsssssssscssssssssssscscscssscssssscsssssssssssssccccsssssssscsscsssssssssscscsssscscscsssccsssssssscsssscssssscsscscssssssssssssssscsssssssccssscsssssssssssssccssssssscsssccsssscccsssssssssssssssssscssssssscsssssssscsssssscsssscsssssssssssscssssscsssscssssccsscssssssscscsssssssssssscsscsscsssssssscsssssscscssscsssssscccsscssssssccsssssscsssssssssssss" /><text
       xml:space="preserve"
       style="font-style:normal;font-variant:normal;font-weight:normal;font-stretch:normal;font-size:25.8396px;font-family:PMingLiU-ExtB;-inkscape-font-specification:'PMingLiU-ExtB, Normal';font-variant-ligatures:normal;font-variant-caps:normal;font-variant-numeric:normal;font-variant-east-asian:normal;text-align:start;writing-mode:lr-tb;direction:ltr;text-anchor:start;fill:#c9a556;fill-opacity:1;stroke:none;stroke-width:2.1533;stroke-opacity:1"
       x="69.6782"
       y="125.11029"
       id="text3-0"><tspan
         sodipodi:role="line"
         id="tspan3-6"
         style="font-style:normal;font-variant:normal;font-weight:normal;font-stretch:normal;font-size:25.8396px;font-family:PMingLiU-ExtB;-inkscape-font-specification:'PMingLiU-ExtB, Normal';font-variant-ligatures:normal;font-variant-caps:normal;font-variant-numeric:normal;font-variant-east-asian:normal;fill:#c9a556;fill-opacity:1;stroke:none;stroke-width:2.1533"
         x="69.6782"
         y="125.11029">C</tspan></text><rect
       style="fill:#c9a556;fill-opacity:1;stroke:none;stroke-width:0.139696;stroke-opacity:1"
       id="rect4-0"
       width="14.936768"
       height="0.2455519"
       x="70.221596"
       y="126.8872" /></g></svg>
